<mxfile host="app.diagrams.net" agent="Mozilla/5.0 (Windows NT 10.0; Win64; x64) AppleWebKit/537.36 (KHTML, like Gecko) Chrome/128.0.0.0 Safari/537.36 Edg/128.0.0.0" version="24.7.8">
  <diagram name="第 1 页" id="QPPe_mM45RTRhulqxfoM">
    <mxGraphModel dx="3130" dy="1550" grid="0" gridSize="10" guides="1" tooltips="1" connect="1" arrows="1" fold="1" page="1" pageScale="1" pageWidth="3300" pageHeight="2339" math="0" shadow="0">
      <root>
        <mxCell id="0" />
        <mxCell id="1" parent="0" />
        <mxCell id="G1OYZxIr4WpRyJIPXuP--4" value="" style="rounded=0;whiteSpace=wrap;html=1;fontFamily=Architects Daughter;fontSource=https%3A%2F%2Ffonts.googleapis.com%2Fcss%3Ffamily%3DArchitects%2BDaughter;" vertex="1" parent="1">
          <mxGeometry x="448" y="1485" width="346" height="139" as="geometry" />
        </mxCell>
        <mxCell id="3G0diSPvrYinm9wSDgkd-9" value="目标路线" style="swimlane;fontStyle=1;childLayout=stackLayout;horizontal=1;startSize=26;fillColor=none;horizontalStack=0;resizeParent=1;resizeParentMax=0;resizeLast=0;collapsible=1;marginBottom=0;html=1;fontFamily=宋体;fontSize=18;verticalAlign=middle;" parent="1" vertex="1">
          <mxGeometry x="350" y="726" width="142" height="188" as="geometry">
            <mxRectangle x="360" y="410" width="110" height="30" as="alternateBounds" />
          </mxGeometry>
        </mxCell>
        <mxCell id="3G0diSPvrYinm9wSDgkd-19" value="最小外接矩形" style="text;strokeColor=none;fillColor=none;align=left;verticalAlign=middle;spacingLeft=4;spacingRight=4;overflow=hidden;rotatable=0;points=[[0,0.5],[1,0.5]];portConstraint=eastwest;whiteSpace=wrap;html=1;fontFamily=宋体;fontStyle=0;fontSize=16;" parent="3G0diSPvrYinm9wSDgkd-9" vertex="1">
          <mxGeometry y="26" width="142" height="26" as="geometry" />
        </mxCell>
        <mxCell id="3G0diSPvrYinm9wSDgkd-36" value="" style="line;strokeWidth=1;fillColor=none;align=left;verticalAlign=middle;spacingTop=-1;spacingLeft=3;spacingRight=3;rotatable=0;labelPosition=right;points=[];portConstraint=eastwest;strokeColor=inherit;fontFamily=宋体;" parent="3G0diSPvrYinm9wSDgkd-9" vertex="1">
          <mxGeometry y="52" width="142" height="8" as="geometry" />
        </mxCell>
        <mxCell id="3G0diSPvrYinm9wSDgkd-18" value="终止点" style="text;strokeColor=none;fillColor=none;align=left;verticalAlign=middle;spacingLeft=4;spacingRight=4;overflow=hidden;rotatable=0;points=[[0,0.5],[1,0.5]];portConstraint=eastwest;whiteSpace=wrap;html=1;fontFamily=宋体;fontStyle=0;fontSize=16;" parent="3G0diSPvrYinm9wSDgkd-9" vertex="1">
          <mxGeometry y="60" width="142" height="26" as="geometry" />
        </mxCell>
        <mxCell id="3G0diSPvrYinm9wSDgkd-35" value="" style="line;strokeWidth=1;fillColor=none;align=left;verticalAlign=middle;spacingTop=-1;spacingLeft=3;spacingRight=3;rotatable=0;labelPosition=right;points=[];portConstraint=eastwest;strokeColor=inherit;fontFamily=宋体;" parent="3G0diSPvrYinm9wSDgkd-9" vertex="1">
          <mxGeometry y="86" width="142" height="8" as="geometry" />
        </mxCell>
        <mxCell id="3G0diSPvrYinm9wSDgkd-201" value="起始点" style="text;strokeColor=none;fillColor=none;align=left;verticalAlign=middle;spacingLeft=4;spacingRight=4;overflow=hidden;rotatable=0;points=[[0,0.5],[1,0.5]];portConstraint=eastwest;whiteSpace=wrap;html=1;fontFamily=宋体;fontStyle=0;fontSize=16;" parent="3G0diSPvrYinm9wSDgkd-9" vertex="1">
          <mxGeometry y="94" width="142" height="26" as="geometry" />
        </mxCell>
        <mxCell id="3G0diSPvrYinm9wSDgkd-37" value="" style="line;strokeWidth=1;fillColor=none;align=left;verticalAlign=middle;spacingTop=-1;spacingLeft=3;spacingRight=3;rotatable=0;labelPosition=right;points=[];portConstraint=eastwest;strokeColor=inherit;fontFamily=宋体;" parent="3G0diSPvrYinm9wSDgkd-9" vertex="1">
          <mxGeometry y="120" width="142" height="8" as="geometry" />
        </mxCell>
        <mxCell id="3G0diSPvrYinm9wSDgkd-12" value="实际地理长度" style="text;strokeColor=none;fillColor=none;align=left;verticalAlign=middle;spacingLeft=4;spacingRight=4;overflow=hidden;rotatable=0;points=[[0,0.5],[1,0.5]];portConstraint=eastwest;whiteSpace=wrap;html=1;fontFamily=宋体;fontStyle=0;fontSize=16;" parent="3G0diSPvrYinm9wSDgkd-9" vertex="1">
          <mxGeometry y="128" width="142" height="26" as="geometry" />
        </mxCell>
        <mxCell id="3G0diSPvrYinm9wSDgkd-34" value="" style="line;strokeWidth=1;fillColor=none;align=left;verticalAlign=middle;spacingTop=-1;spacingLeft=3;spacingRight=3;rotatable=0;labelPosition=right;points=[];portConstraint=eastwest;strokeColor=inherit;fontFamily=宋体;" parent="3G0diSPvrYinm9wSDgkd-9" vertex="1">
          <mxGeometry y="154" width="142" height="8" as="geometry" />
        </mxCell>
        <mxCell id="3G0diSPvrYinm9wSDgkd-10" value="轨迹序列" style="text;strokeColor=none;fillColor=none;align=left;verticalAlign=middle;spacingLeft=4;spacingRight=4;overflow=hidden;rotatable=0;points=[[0,0.5],[1,0.5]];portConstraint=eastwest;whiteSpace=wrap;html=1;fontFamily=宋体;fontStyle=0;fontSize=16;" parent="3G0diSPvrYinm9wSDgkd-9" vertex="1">
          <mxGeometry y="162" width="142" height="26" as="geometry" />
        </mxCell>
        <mxCell id="3G0diSPvrYinm9wSDgkd-20" value="Kafka" style="shape=tape;whiteSpace=wrap;html=1;strokeWidth=2;size=0.19;fontFamily=宋体;fontStyle=0;fontSize=18;" parent="1" vertex="1">
          <mxGeometry x="668" y="219" width="100" height="47" as="geometry" />
        </mxCell>
        <mxCell id="3G0diSPvrYinm9wSDgkd-21" value="HDFS" style="strokeWidth=2;html=1;shape=mxgraph.flowchart.multi-document;whiteSpace=wrap;fontFamily=宋体;fontSize=18;fontStyle=0" parent="1" vertex="1">
          <mxGeometry x="838" y="212.5" width="88" height="60" as="geometry" />
        </mxCell>
        <mxCell id="3G0diSPvrYinm9wSDgkd-22" style="edgeStyle=none;curved=1;rounded=0;orthogonalLoop=1;jettySize=auto;html=1;exitX=1;exitY=0.5;exitDx=0;exitDy=0;exitPerimeter=0;entryX=0;entryY=0.5;entryDx=0;entryDy=0;entryPerimeter=0;fontFamily=宋体;fontSize=16;startSize=14;endArrow=open;endSize=14;sourcePerimeterSpacing=8;targetPerimeterSpacing=8;" parent="1" source="3G0diSPvrYinm9wSDgkd-20" target="3G0diSPvrYinm9wSDgkd-21" edge="1">
          <mxGeometry relative="1" as="geometry" />
        </mxCell>
        <mxCell id="3G0diSPvrYinm9wSDgkd-23" value="车联网数据回传" style="swimlane;fontStyle=1;align=center;verticalAlign=middle;childLayout=stackLayout;horizontal=1;startSize=26;horizontalStack=0;resizeParent=1;resizeParentMax=0;resizeLast=0;collapsible=1;marginBottom=0;whiteSpace=wrap;html=1;fontFamily=宋体;fontSize=17;" parent="1" vertex="1">
          <mxGeometry x="926" y="100" width="160" height="224" as="geometry" />
        </mxCell>
        <mxCell id="3G0diSPvrYinm9wSDgkd-24" value="终端ID" style="text;strokeColor=none;fillColor=none;align=left;verticalAlign=middle;spacingLeft=4;spacingRight=4;overflow=hidden;rotatable=0;points=[[0,0.5],[1,0.5]];portConstraint=eastwest;whiteSpace=wrap;html=1;fontFamily=宋体;fontSize=15;fontColor=#000000;" parent="3G0diSPvrYinm9wSDgkd-23" vertex="1">
          <mxGeometry y="26" width="160" height="21" as="geometry" />
        </mxCell>
        <mxCell id="3G0diSPvrYinm9wSDgkd-38" value="" style="line;strokeWidth=1;fillColor=none;align=left;verticalAlign=middle;spacingTop=-1;spacingLeft=3;spacingRight=3;rotatable=0;labelPosition=right;points=[];portConstraint=eastwest;strokeColor=inherit;fontFamily=宋体;" parent="3G0diSPvrYinm9wSDgkd-23" vertex="1">
          <mxGeometry y="47" width="160" height="8" as="geometry" />
        </mxCell>
        <mxCell id="3G0diSPvrYinm9wSDgkd-27" value="采集时间" style="text;strokeColor=none;fillColor=none;align=left;verticalAlign=middle;spacingLeft=4;spacingRight=4;overflow=hidden;rotatable=0;points=[[0,0.5],[1,0.5]];portConstraint=eastwest;whiteSpace=wrap;html=1;fontFamily=宋体;fontSize=15;fontColor=#000000;" parent="3G0diSPvrYinm9wSDgkd-23" vertex="1">
          <mxGeometry y="55" width="160" height="22" as="geometry" />
        </mxCell>
        <mxCell id="3G0diSPvrYinm9wSDgkd-39" value="" style="line;strokeWidth=1;fillColor=none;align=left;verticalAlign=middle;spacingTop=-1;spacingLeft=3;spacingRight=3;rotatable=0;labelPosition=right;points=[];portConstraint=eastwest;strokeColor=inherit;fontFamily=宋体;" parent="3G0diSPvrYinm9wSDgkd-23" vertex="1">
          <mxGeometry y="77" width="160" height="8" as="geometry" />
        </mxCell>
        <mxCell id="3G0diSPvrYinm9wSDgkd-26" value="经度" style="text;strokeColor=none;fillColor=none;align=left;verticalAlign=middle;spacingLeft=4;spacingRight=4;overflow=hidden;rotatable=0;points=[[0,0.5],[1,0.5]];portConstraint=eastwest;whiteSpace=wrap;html=1;fontFamily=宋体;fontSize=15;fontColor=#000000;" parent="3G0diSPvrYinm9wSDgkd-23" vertex="1">
          <mxGeometry y="85" width="160" height="22" as="geometry" />
        </mxCell>
        <mxCell id="3G0diSPvrYinm9wSDgkd-51" value="" style="line;strokeWidth=1;fillColor=none;align=left;verticalAlign=middle;spacingTop=-1;spacingLeft=3;spacingRight=3;rotatable=0;labelPosition=right;points=[];portConstraint=eastwest;strokeColor=inherit;fontFamily=宋体;" parent="3G0diSPvrYinm9wSDgkd-23" vertex="1">
          <mxGeometry y="107" width="160" height="8" as="geometry" />
        </mxCell>
        <mxCell id="3G0diSPvrYinm9wSDgkd-48" value="纬度" style="text;strokeColor=none;fillColor=none;align=left;verticalAlign=middle;spacingLeft=4;spacingRight=4;overflow=hidden;rotatable=0;points=[[0,0.5],[1,0.5]];portConstraint=eastwest;whiteSpace=wrap;html=1;fontFamily=宋体;fontSize=15;fontColor=#000000;" parent="3G0diSPvrYinm9wSDgkd-23" vertex="1">
          <mxGeometry y="115" width="160" height="21" as="geometry" />
        </mxCell>
        <mxCell id="3G0diSPvrYinm9wSDgkd-52" value="" style="line;strokeWidth=1;fillColor=none;align=left;verticalAlign=middle;spacingTop=-1;spacingLeft=3;spacingRight=3;rotatable=0;labelPosition=right;points=[];portConstraint=eastwest;strokeColor=inherit;fontFamily=宋体;" parent="3G0diSPvrYinm9wSDgkd-23" vertex="1">
          <mxGeometry y="136" width="160" height="8" as="geometry" />
        </mxCell>
        <mxCell id="3G0diSPvrYinm9wSDgkd-40" value="车速" style="text;strokeColor=none;fillColor=none;align=left;verticalAlign=middle;spacingLeft=4;spacingRight=4;overflow=hidden;rotatable=0;points=[[0,0.5],[1,0.5]];portConstraint=eastwest;whiteSpace=wrap;html=1;fontFamily=宋体;fontSize=15;fontColor=#000000;" parent="3G0diSPvrYinm9wSDgkd-23" vertex="1">
          <mxGeometry y="144" width="160" height="20" as="geometry" />
        </mxCell>
        <mxCell id="3G0diSPvrYinm9wSDgkd-53" value="" style="line;strokeWidth=1;fillColor=none;align=left;verticalAlign=middle;spacingTop=-1;spacingLeft=3;spacingRight=3;rotatable=0;labelPosition=right;points=[];portConstraint=eastwest;strokeColor=inherit;fontFamily=宋体;" parent="3G0diSPvrYinm9wSDgkd-23" vertex="1">
          <mxGeometry y="164" width="160" height="8" as="geometry" />
        </mxCell>
        <mxCell id="3G0diSPvrYinm9wSDgkd-49" value="发动机转速" style="text;strokeColor=none;fillColor=none;align=left;verticalAlign=middle;spacingLeft=4;spacingRight=4;overflow=hidden;rotatable=0;points=[[0,0.5],[1,0.5]];portConstraint=eastwest;whiteSpace=wrap;html=1;fontFamily=宋体;fontSize=15;fontColor=#000000;" parent="3G0diSPvrYinm9wSDgkd-23" vertex="1">
          <mxGeometry y="172" width="160" height="20" as="geometry" />
        </mxCell>
        <mxCell id="3G0diSPvrYinm9wSDgkd-54" value="" style="line;strokeWidth=1;fillColor=none;align=left;verticalAlign=middle;spacingTop=-1;spacingLeft=3;spacingRight=3;rotatable=0;labelPosition=right;points=[];portConstraint=eastwest;strokeColor=inherit;fontFamily=宋体;" parent="3G0diSPvrYinm9wSDgkd-23" vertex="1">
          <mxGeometry y="192" width="160" height="8" as="geometry" />
        </mxCell>
        <mxCell id="3G0diSPvrYinm9wSDgkd-50" value="......" style="text;strokeColor=none;fillColor=none;align=left;verticalAlign=middle;spacingLeft=4;spacingRight=4;overflow=hidden;rotatable=0;points=[[0,0.5],[1,0.5]];portConstraint=eastwest;whiteSpace=wrap;html=1;fontFamily=宋体;fontSize=15;fontColor=#000000;" parent="3G0diSPvrYinm9wSDgkd-23" vertex="1">
          <mxGeometry y="200" width="160" height="24" as="geometry" />
        </mxCell>
        <mxCell id="3G0diSPvrYinm9wSDgkd-55" value="IOT" style="ellipse;shape=cloud;whiteSpace=wrap;html=1;align=center;fontFamily=宋体;fontSize=20;" parent="1" vertex="1">
          <mxGeometry x="313" y="216" width="230" height="197.25" as="geometry" />
        </mxCell>
        <mxCell id="3G0diSPvrYinm9wSDgkd-160" value="候选轨迹集构建" style="rhombus;whiteSpace=wrap;html=1;fontFamily=宋体;fontSize=18;" parent="1" vertex="1">
          <mxGeometry x="771.5" y="770" width="222" height="59" as="geometry" />
        </mxCell>
        <mxCell id="3G0diSPvrYinm9wSDgkd-166" value="轨迹滤波与增强" style="shape=parallelogram;perimeter=parallelogramPerimeter;whiteSpace=wrap;html=1;fixedSize=1;fontFamily=宋体;fontSize=19;" parent="1" vertex="1">
          <mxGeometry x="1043" y="865" width="173" height="40" as="geometry" />
        </mxCell>
        <mxCell id="3G0diSPvrYinm9wSDgkd-167" value="轨迹精确匹配" style="shape=parallelogram;perimeter=parallelogramPerimeter;whiteSpace=wrap;html=1;fixedSize=1;fontFamily=宋体;fontSize=19;" parent="1" vertex="1">
          <mxGeometry x="766" y="939" width="231" height="44" as="geometry" />
        </mxCell>
        <mxCell id="3G0diSPvrYinm9wSDgkd-168" value="" style="edgeStyle=elbowEdgeStyle;elbow=horizontal;endArrow=classic;html=1;curved=0;rounded=0;endSize=8;startSize=8;fontFamily=宋体;fontSize=16;sourcePerimeterSpacing=8;targetPerimeterSpacing=8;entryX=0;entryY=0.5;entryDx=0;entryDy=0;exitX=1;exitY=0.5;exitDx=0;exitDy=0;" parent="1" source="G1OYZxIr4WpRyJIPXuP--146" target="3G0diSPvrYinm9wSDgkd-166" edge="1">
          <mxGeometry width="50" height="50" relative="1" as="geometry">
            <mxPoint x="987" y="873" as="sourcePoint" />
            <mxPoint x="727" y="954" as="targetPoint" />
          </mxGeometry>
        </mxCell>
        <mxCell id="3G0diSPvrYinm9wSDgkd-170" value="" style="edgeStyle=elbowEdgeStyle;elbow=horizontal;endArrow=classic;html=1;curved=0;rounded=0;endSize=8;startSize=8;fontFamily=宋体;fontSize=16;sourcePerimeterSpacing=8;targetPerimeterSpacing=8;exitX=0.5;exitY=1;exitDx=0;exitDy=0;entryX=1;entryY=0.5;entryDx=0;entryDy=0;" parent="1" source="3G0diSPvrYinm9wSDgkd-166" target="3G0diSPvrYinm9wSDgkd-167" edge="1">
          <mxGeometry width="50" height="50" relative="1" as="geometry">
            <mxPoint x="1104" y="1022" as="sourcePoint" />
            <mxPoint x="1154" y="972" as="targetPoint" />
            <Array as="points">
              <mxPoint x="1130" y="929" />
              <mxPoint x="1117" y="924" />
            </Array>
          </mxGeometry>
        </mxCell>
        <mxCell id="3G0diSPvrYinm9wSDgkd-171" value="&lt;span style=&quot;text-align: justify; background-color: rgb(255, 255, 255);&quot;&gt;&lt;font style=&quot;font-size: 18px;&quot;&gt;&amp;nbsp;相似度≤ε&lt;/font&gt;&lt;/span&gt;" style="rhombus;whiteSpace=wrap;html=1;fontFamily=宋体;fontSize=18;" parent="1" vertex="1">
          <mxGeometry x="771" y="1021" width="222" height="61" as="geometry" />
        </mxCell>
        <mxCell id="3G0diSPvrYinm9wSDgkd-174" value="" style="edgeStyle=elbowEdgeStyle;elbow=horizontal;endArrow=classic;html=1;curved=0;rounded=0;endSize=8;startSize=8;fontFamily=宋体;fontSize=16;sourcePerimeterSpacing=8;targetPerimeterSpacing=8;exitX=0.5;exitY=1;exitDx=0;exitDy=0;entryX=0.5;entryY=0;entryDx=0;entryDy=0;" parent="1" source="3G0diSPvrYinm9wSDgkd-167" target="3G0diSPvrYinm9wSDgkd-171" edge="1">
          <mxGeometry width="50" height="50" relative="1" as="geometry">
            <mxPoint x="734" y="754" as="sourcePoint" />
            <mxPoint x="849" y="1065" as="targetPoint" />
          </mxGeometry>
        </mxCell>
        <mxCell id="3G0diSPvrYinm9wSDgkd-178" value="性能分析" style="swimlane;startSize=24;horizontal=1;containerType=tree;newEdgeStyle={&quot;edgeStyle&quot;:&quot;elbowEdgeStyle&quot;,&quot;startArrow&quot;:&quot;none&quot;,&quot;endArrow&quot;:&quot;none&quot;};fontFamily=宋体;fontSize=18;" parent="1" vertex="1">
          <mxGeometry x="348" y="979" width="280" height="145" as="geometry" />
        </mxCell>
        <mxCell id="3G0diSPvrYinm9wSDgkd-179" value="" style="edgeStyle=elbowEdgeStyle;elbow=vertical;sourcePerimeterSpacing=0;targetPerimeterSpacing=0;startArrow=none;endArrow=none;rounded=0;curved=0;fontFamily=宋体;fontSize=16;startSize=14;endSize=14;" parent="3G0diSPvrYinm9wSDgkd-178" source="3G0diSPvrYinm9wSDgkd-181" target="3G0diSPvrYinm9wSDgkd-182" edge="1">
          <mxGeometry relative="1" as="geometry" />
        </mxCell>
        <mxCell id="3G0diSPvrYinm9wSDgkd-180" value="" style="edgeStyle=elbowEdgeStyle;elbow=vertical;sourcePerimeterSpacing=0;targetPerimeterSpacing=0;startArrow=none;endArrow=none;rounded=0;curved=0;fontFamily=宋体;fontSize=16;startSize=14;endSize=14;" parent="3G0diSPvrYinm9wSDgkd-178" source="3G0diSPvrYinm9wSDgkd-181" target="3G0diSPvrYinm9wSDgkd-183" edge="1">
          <mxGeometry relative="1" as="geometry" />
        </mxCell>
        <UserObject label="多维动态数据整合" treeRoot="1" id="3G0diSPvrYinm9wSDgkd-181">
          <mxCell style="whiteSpace=wrap;html=1;align=center;treeFolding=1;treeMoving=1;newEdgeStyle={&quot;edgeStyle&quot;:&quot;elbowEdgeStyle&quot;,&quot;startArrow&quot;:&quot;none&quot;,&quot;endArrow&quot;:&quot;none&quot;};fontFamily=宋体;fontSize=18;" parent="3G0diSPvrYinm9wSDgkd-178" vertex="1">
            <mxGeometry x="54" y="40" width="167" height="28" as="geometry" />
          </mxCell>
        </UserObject>
        <mxCell id="3G0diSPvrYinm9wSDgkd-182" value="统计分布" style="whiteSpace=wrap;html=1;align=center;verticalAlign=middle;treeFolding=1;treeMoving=1;newEdgeStyle={&quot;edgeStyle&quot;:&quot;elbowEdgeStyle&quot;,&quot;startArrow&quot;:&quot;none&quot;,&quot;endArrow&quot;:&quot;none&quot;};fontFamily=宋体;fontSize=18;" parent="3G0diSPvrYinm9wSDgkd-178" vertex="1">
          <mxGeometry x="18.5" y="95" width="100" height="36" as="geometry" />
        </mxCell>
        <mxCell id="3G0diSPvrYinm9wSDgkd-183" value="数据挖掘" style="whiteSpace=wrap;html=1;align=center;verticalAlign=middle;treeFolding=1;treeMoving=1;newEdgeStyle={&quot;edgeStyle&quot;:&quot;elbowEdgeStyle&quot;,&quot;startArrow&quot;:&quot;none&quot;,&quot;endArrow&quot;:&quot;none&quot;};fontFamily=宋体;fontSize=18;" parent="3G0diSPvrYinm9wSDgkd-178" vertex="1">
          <mxGeometry x="158.5" y="95" width="100" height="36" as="geometry" />
        </mxCell>
        <mxCell id="3G0diSPvrYinm9wSDgkd-184" value="" style="edgeStyle=elbowEdgeStyle;elbow=horizontal;endArrow=classic;html=1;curved=0;rounded=0;endSize=8;startSize=8;fontFamily=宋体;fontSize=16;sourcePerimeterSpacing=8;targetPerimeterSpacing=8;exitX=0;exitY=0.5;exitDx=0;exitDy=0;entryX=1;entryY=0.5;entryDx=0;entryDy=0;" parent="1" source="3G0diSPvrYinm9wSDgkd-171" target="3G0diSPvrYinm9wSDgkd-178" edge="1">
          <mxGeometry width="50" height="50" relative="1" as="geometry">
            <mxPoint x="745" y="1178" as="sourcePoint" />
            <mxPoint x="795" y="1128" as="targetPoint" />
          </mxGeometry>
        </mxCell>
        <mxCell id="3G0diSPvrYinm9wSDgkd-186" value="" style="edgeStyle=elbowEdgeStyle;elbow=horizontal;endArrow=classic;html=1;curved=0;rounded=0;endSize=8;startSize=8;fontFamily=宋体;fontSize=16;sourcePerimeterSpacing=8;targetPerimeterSpacing=8;exitX=0.875;exitY=0.5;exitDx=0;exitDy=0;exitPerimeter=0;entryX=0;entryY=0.5;entryDx=0;entryDy=0;entryPerimeter=0;" parent="1" source="3G0diSPvrYinm9wSDgkd-55" target="3G0diSPvrYinm9wSDgkd-20" edge="1">
          <mxGeometry width="50" height="50" relative="1" as="geometry">
            <mxPoint x="544" y="301" as="sourcePoint" />
            <mxPoint x="594" y="251" as="targetPoint" />
          </mxGeometry>
        </mxCell>
        <mxCell id="3G0diSPvrYinm9wSDgkd-187" value="&lt;font size=&quot;1&quot; style=&quot;&quot;&gt;&lt;b style=&quot;font-size: 16px;&quot;&gt;用户&lt;/b&gt;&lt;/font&gt;" style="shape=umlActor;verticalLabelPosition=bottom;verticalAlign=top;html=1;fontFamily=宋体;" parent="1" vertex="1">
          <mxGeometry x="278" y="805" width="30" height="60" as="geometry" />
        </mxCell>
        <mxCell id="3G0diSPvrYinm9wSDgkd-191" value="" style="endArrow=none;html=1;rounded=0;fontFamily=宋体;fontSize=16;startSize=14;endSize=14;sourcePerimeterSpacing=8;targetPerimeterSpacing=8;curved=1;" parent="1" edge="1">
          <mxGeometry width="50" height="50" relative="1" as="geometry">
            <mxPoint x="313" y="1147" as="sourcePoint" />
            <mxPoint x="311" y="447" as="targetPoint" />
          </mxGeometry>
        </mxCell>
        <mxCell id="3G0diSPvrYinm9wSDgkd-197" value="数据湖" style="text;html=1;align=center;verticalAlign=middle;whiteSpace=wrap;rounded=0;fontSize=20;fontFamily=宋体;fontStyle=1" parent="1" vertex="1">
          <mxGeometry x="842" y="179" width="81" height="30" as="geometry" />
        </mxCell>
        <mxCell id="3G0diSPvrYinm9wSDgkd-198" value="是" style="text;html=1;align=center;verticalAlign=middle;whiteSpace=wrap;rounded=0;fontSize=18;fontFamily=宋体;" parent="1" vertex="1">
          <mxGeometry x="671" y="1027" width="60" height="30" as="geometry" />
        </mxCell>
        <mxCell id="3G0diSPvrYinm9wSDgkd-226" value="候选轨迹" style="text;html=1;align=center;verticalAlign=middle;whiteSpace=wrap;rounded=0;fontSize=18;fontFamily=宋体;fontStyle=2" parent="1" vertex="1">
          <mxGeometry x="887" y="824" width="83" height="30" as="geometry" />
        </mxCell>
        <mxCell id="3G0diSPvrYinm9wSDgkd-227" value="相似轨迹" style="text;html=1;align=center;verticalAlign=middle;whiteSpace=wrap;rounded=0;fontSize=18;fontFamily=宋体;fontStyle=2" parent="1" vertex="1">
          <mxGeometry x="881" y="988" width="83" height="30" as="geometry" />
        </mxCell>
        <mxCell id="7TAQLzED8YgwvD5aUBoT-1" value="" style="endArrow=classic;html=1;rounded=0;fontFamily=Architects Daughter;fontSource=https%3A%2F%2Ffonts.googleapis.com%2Fcss%3Ffamily%3DArchitects%2BDaughter;fontSize=16;startSize=14;endSize=14;sourcePerimeterSpacing=8;targetPerimeterSpacing=8;curved=1;entryX=0.4;entryY=0.1;entryDx=0;entryDy=0;entryPerimeter=0;" parent="1" target="3G0diSPvrYinm9wSDgkd-55" edge="1">
          <mxGeometry relative="1" as="geometry">
            <mxPoint x="373" y="176" as="sourcePoint" />
            <mxPoint x="473" y="176" as="targetPoint" />
          </mxGeometry>
        </mxCell>
        <mxCell id="7TAQLzED8YgwvD5aUBoT-2" value="" style="shape=message;html=1;outlineConnect=0;fontFamily=Architects Daughter;fontSource=https%3A%2F%2Ffonts.googleapis.com%2Fcss%3Ffamily%3DArchitects%2BDaughter;" parent="7TAQLzED8YgwvD5aUBoT-1" vertex="1">
          <mxGeometry width="20" height="14" relative="1" as="geometry">
            <mxPoint x="-10" y="-7" as="offset" />
          </mxGeometry>
        </mxCell>
        <mxCell id="G1OYZxIr4WpRyJIPXuP--2" value="" style="curved=1;endArrow=oval;html=1;rounded=0;fontFamily=Architects Daughter;fontSource=https%3A%2F%2Ffonts.googleapis.com%2Fcss%3Ffamily%3DArchitects%2BDaughter;fontSize=16;startSize=14;endSize=14;sourcePerimeterSpacing=8;targetPerimeterSpacing=8;endFill=1;startArrow=oval;startFill=1;dashed=1;" edge="1" parent="1">
          <mxGeometry width="50" height="50" relative="1" as="geometry">
            <mxPoint x="455" y="1617" as="sourcePoint" />
            <mxPoint x="787" y="1507" as="targetPoint" />
            <Array as="points">
              <mxPoint x="496" y="1600" />
              <mxPoint x="496" y="1553" />
              <mxPoint x="567" y="1583" />
              <mxPoint x="567" y="1507" />
              <mxPoint x="630" y="1550" />
              <mxPoint x="646" y="1517" />
              <mxPoint x="650" y="1482" />
              <mxPoint x="722" y="1492" />
              <mxPoint x="738" y="1559" />
            </Array>
          </mxGeometry>
        </mxCell>
        <mxCell id="G1OYZxIr4WpRyJIPXuP--5" value="&lt;font face=&quot;Times New Roman&quot;&gt;P&lt;sub&gt;1&lt;/sub&gt;&lt;/font&gt;" style="text;strokeColor=none;fillColor=none;html=1;align=center;verticalAlign=middle;whiteSpace=wrap;rounded=0;fontSize=20;fontFamily=Architects Daughter;fontSource=https%3A%2F%2Ffonts.googleapis.com%2Fcss%3Ffamily%3DArchitects%2BDaughter;" vertex="1" parent="1">
          <mxGeometry x="436" y="1580" width="60" height="30" as="geometry" />
        </mxCell>
        <mxCell id="G1OYZxIr4WpRyJIPXuP--6" value="&lt;font face=&quot;Times New Roman&quot;&gt;P&lt;span style=&quot;font-size: 16.6667px;&quot;&gt;n&lt;/span&gt;&lt;/font&gt;" style="text;strokeColor=none;fillColor=none;html=1;align=center;verticalAlign=middle;whiteSpace=wrap;rounded=0;fontSize=20;fontFamily=Architects Daughter;fontSource=https%3A%2F%2Ffonts.googleapis.com%2Fcss%3Ffamily%3DArchitects%2BDaughter;" vertex="1" parent="1">
          <mxGeometry x="734" y="1488" width="60" height="30" as="geometry" />
        </mxCell>
        <mxCell id="G1OYZxIr4WpRyJIPXuP--7" value="&lt;font face=&quot;Times New Roman&quot;&gt;MBR&lt;/font&gt;" style="text;strokeColor=none;fillColor=none;html=1;align=center;verticalAlign=middle;whiteSpace=wrap;rounded=0;fontSize=20;fontFamily=Architects Daughter;fontSource=https%3A%2F%2Ffonts.googleapis.com%2Fcss%3Ffamily%3DArchitects%2BDaughter;" vertex="1" parent="1">
          <mxGeometry x="448" y="1488" width="60" height="30" as="geometry" />
        </mxCell>
        <mxCell id="G1OYZxIr4WpRyJIPXuP--8" value="&lt;font face=&quot;Times New Roman&quot;&gt;T&lt;/font&gt;" style="text;strokeColor=none;fillColor=none;html=1;align=center;verticalAlign=middle;whiteSpace=wrap;rounded=0;fontSize=20;fontFamily=Architects Daughter;fontSource=https%3A%2F%2Ffonts.googleapis.com%2Fcss%3Ffamily%3DArchitects%2BDaughter;" vertex="1" parent="1">
          <mxGeometry x="585" y="1545" width="60" height="30" as="geometry" />
        </mxCell>
        <mxCell id="G1OYZxIr4WpRyJIPXuP--142" value="" style="group" vertex="1" connectable="0" parent="1">
          <mxGeometry x="561" y="356" width="617" height="414" as="geometry" />
        </mxCell>
        <mxCell id="G1OYZxIr4WpRyJIPXuP--134" value="" style="rounded=0;whiteSpace=wrap;html=1;fontFamily=Architects Daughter;fontSource=https%3A%2F%2Ffonts.googleapis.com%2Fcss%3Ffamily%3DArchitects%2BDaughter;" vertex="1" parent="G1OYZxIr4WpRyJIPXuP--142">
          <mxGeometry x="3" y="-17" width="617" height="411.93" as="geometry" />
        </mxCell>
        <mxCell id="G1OYZxIr4WpRyJIPXuP--128" value="" style="group" vertex="1" connectable="0" parent="G1OYZxIr4WpRyJIPXuP--142">
          <mxGeometry x="54" y="91.88265306122449" width="558" height="322.1173469387755" as="geometry" />
        </mxCell>
        <mxCell id="G1OYZxIr4WpRyJIPXuP--67" value="" style="group;fontFamily=宋体;" vertex="1" connectable="0" parent="G1OYZxIr4WpRyJIPXuP--128">
          <mxGeometry x="395" y="106.66836734693877" width="163" height="155.25" as="geometry" />
        </mxCell>
        <mxCell id="G1OYZxIr4WpRyJIPXuP--68" value="" style="rounded=1;whiteSpace=wrap;html=1;fontFamily=宋体;fillColor=none;" vertex="1" parent="G1OYZxIr4WpRyJIPXuP--67">
          <mxGeometry x="43" y="3.1683673469387754" width="116" height="148.91326530612244" as="geometry" />
        </mxCell>
        <mxCell id="G1OYZxIr4WpRyJIPXuP--69" value="&lt;b&gt;&lt;font style=&quot;font-size: 15px;&quot;&gt;分区n&lt;/font&gt;&lt;/b&gt;" style="rounded=0;whiteSpace=wrap;html=1;fontFamily=宋体;fillColor=none;align=left;" vertex="1" parent="G1OYZxIr4WpRyJIPXuP--67">
          <mxGeometry width="163" height="155.25" as="geometry" />
        </mxCell>
        <mxCell id="G1OYZxIr4WpRyJIPXuP--70" value="" style="group;fontFamily=宋体;" vertex="1" connectable="0" parent="G1OYZxIr4WpRyJIPXuP--128">
          <mxGeometry y="105.61224489795919" width="163" height="155.25" as="geometry" />
        </mxCell>
        <mxCell id="G1OYZxIr4WpRyJIPXuP--71" value="" style="group;fontFamily=宋体;" vertex="1" connectable="0" parent="G1OYZxIr4WpRyJIPXuP--70">
          <mxGeometry x="51" y="15.841836734693876" width="103" height="123.56632653061223" as="geometry" />
        </mxCell>
        <mxCell id="G1OYZxIr4WpRyJIPXuP--72" value="" style="rounded=0;whiteSpace=wrap;html=1;fontFamily=宋体;" vertex="1" parent="G1OYZxIr4WpRyJIPXuP--71">
          <mxGeometry x="56" y="4.224489795918367" width="47" height="119.34183673469387" as="geometry" />
        </mxCell>
        <mxCell id="G1OYZxIr4WpRyJIPXuP--73" value="" style="rounded=0;whiteSpace=wrap;html=1;fontFamily=宋体;fillColor=none;" vertex="1" parent="G1OYZxIr4WpRyJIPXuP--71">
          <mxGeometry x="10" width="40" height="73.92857142857143" as="geometry" />
        </mxCell>
        <mxCell id="G1OYZxIr4WpRyJIPXuP--74" value="" style="rounded=0;whiteSpace=wrap;html=1;fontFamily=宋体;fillColor=none;" vertex="1" parent="G1OYZxIr4WpRyJIPXuP--71">
          <mxGeometry y="32.21173469387755" width="42" height="67.06377551020408" as="geometry" />
        </mxCell>
        <mxCell id="G1OYZxIr4WpRyJIPXuP--75" value="" style="rounded=0;whiteSpace=wrap;html=1;fontFamily=宋体;fillColor=none;" vertex="1" parent="G1OYZxIr4WpRyJIPXuP--71">
          <mxGeometry x="60" y="8.448979591836734" width="19" height="90.8265306122449" as="geometry" />
        </mxCell>
        <mxCell id="G1OYZxIr4WpRyJIPXuP--76" value="" style="rounded=0;whiteSpace=wrap;html=1;fontFamily=宋体;fillColor=none;" vertex="1" parent="G1OYZxIr4WpRyJIPXuP--71">
          <mxGeometry x="65" y="63.367346938775505" width="33" height="53.86224489795918" as="geometry" />
        </mxCell>
        <mxCell id="G1OYZxIr4WpRyJIPXuP--77" value="" style="rounded=0;whiteSpace=wrap;html=1;fontFamily=宋体;fillColor=none;" vertex="1" parent="G1OYZxIr4WpRyJIPXuP--71">
          <mxGeometry x="70" y="13.729591836734693" width="25" height="57.03061224489795" as="geometry" />
        </mxCell>
        <mxCell id="G1OYZxIr4WpRyJIPXuP--78" value="" style="rounded=0;whiteSpace=wrap;html=1;fontFamily=宋体;fillColor=none;" vertex="1" parent="G1OYZxIr4WpRyJIPXuP--71">
          <mxGeometry x="70" y="84.48979591836734" width="26" height="27.459183673469386" as="geometry" />
        </mxCell>
        <mxCell id="G1OYZxIr4WpRyJIPXuP--79" value="" style="shape=waypoint;sketch=0;fillStyle=solid;size=6;pointerEvents=1;points=[];fillColor=none;resizable=0;rotatable=0;perimeter=centerPerimeter;snapToPoint=1;fontFamily=宋体;strokeWidth=0;" vertex="1" parent="G1OYZxIr4WpRyJIPXuP--71">
          <mxGeometry x="73" y="82.37755102040816" width="20" height="20" as="geometry" />
        </mxCell>
        <mxCell id="G1OYZxIr4WpRyJIPXuP--80" value="" style="shape=waypoint;sketch=0;fillStyle=solid;size=6;pointerEvents=1;points=[];fillColor=none;resizable=0;rotatable=0;perimeter=centerPerimeter;snapToPoint=1;fontFamily=宋体;strokeWidth=0;" vertex="1" parent="G1OYZxIr4WpRyJIPXuP--71">
          <mxGeometry x="79" y="87.65816326530611" width="20" height="20" as="geometry" />
        </mxCell>
        <mxCell id="G1OYZxIr4WpRyJIPXuP--81" value="" style="shape=waypoint;sketch=0;fillStyle=solid;size=6;pointerEvents=1;points=[];fillColor=none;resizable=0;rotatable=0;perimeter=centerPerimeter;snapToPoint=1;fontFamily=宋体;strokeWidth=0;" vertex="1" parent="G1OYZxIr4WpRyJIPXuP--71">
          <mxGeometry x="70" y="96.10714285714285" width="20" height="20" as="geometry" />
        </mxCell>
        <mxCell id="G1OYZxIr4WpRyJIPXuP--82" value="" style="shape=waypoint;sketch=0;fillStyle=solid;size=6;pointerEvents=1;points=[];fillColor=none;resizable=0;rotatable=0;perimeter=centerPerimeter;snapToPoint=1;fontFamily=宋体;strokeWidth=0;" vertex="1" parent="G1OYZxIr4WpRyJIPXuP--71">
          <mxGeometry x="11" y="59.14285714285714" width="20" height="20" as="geometry" />
        </mxCell>
        <mxCell id="G1OYZxIr4WpRyJIPXuP--83" value="" style="shape=waypoint;sketch=0;fillStyle=solid;size=6;pointerEvents=1;points=[];fillColor=none;resizable=0;rotatable=0;perimeter=centerPerimeter;snapToPoint=1;fontFamily=宋体;strokeWidth=0;" vertex="1" parent="G1OYZxIr4WpRyJIPXuP--71">
          <mxGeometry x="3" y="70.76020408163265" width="20" height="20" as="geometry" />
        </mxCell>
        <mxCell id="G1OYZxIr4WpRyJIPXuP--84" value="" style="shape=waypoint;sketch=0;fillStyle=solid;size=6;pointerEvents=1;points=[];fillColor=none;resizable=0;rotatable=0;perimeter=centerPerimeter;snapToPoint=1;fontFamily=宋体;strokeWidth=0;" vertex="1" parent="G1OYZxIr4WpRyJIPXuP--71">
          <mxGeometry x="25" y="74.98469387755101" width="20" height="20" as="geometry" />
        </mxCell>
        <mxCell id="G1OYZxIr4WpRyJIPXuP--85" value="" style="rounded=1;whiteSpace=wrap;html=1;fontFamily=宋体;fillColor=none;" vertex="1" parent="G1OYZxIr4WpRyJIPXuP--70">
          <mxGeometry x="43" y="3.1683673469387754" width="116" height="148.91326530612244" as="geometry" />
        </mxCell>
        <mxCell id="G1OYZxIr4WpRyJIPXuP--86" value="&lt;b&gt;&lt;font style=&quot;font-size: 15px;&quot;&gt;分区1&lt;/font&gt;&lt;/b&gt;" style="rounded=0;whiteSpace=wrap;html=1;fontFamily=宋体;fillColor=none;align=left;" vertex="1" parent="G1OYZxIr4WpRyJIPXuP--70">
          <mxGeometry width="163" height="155.25" as="geometry" />
        </mxCell>
        <mxCell id="G1OYZxIr4WpRyJIPXuP--87" value="&lt;font face=&quot;Times New Roman&quot; style=&quot;font-size: 14px;&quot;&gt;R-Tree&lt;/font&gt;" style="text;html=1;align=center;verticalAlign=middle;whiteSpace=wrap;rounded=0;fontSize=20;fontFamily=Architects Daughter;fontSource=https%3A%2F%2Ffonts.googleapis.com%2Fcss%3Ffamily%3DArchitects%2BDaughter;" vertex="1" parent="G1OYZxIr4WpRyJIPXuP--70">
          <mxGeometry x="43" y="117.22959183673468" width="60" height="31.683673469387752" as="geometry" />
        </mxCell>
        <mxCell id="G1OYZxIr4WpRyJIPXuP--88" value="" style="group;fontFamily=宋体;" vertex="1" connectable="0" parent="G1OYZxIr4WpRyJIPXuP--128">
          <mxGeometry x="186" y="106.66836734693877" width="163" height="155.25" as="geometry" />
        </mxCell>
        <mxCell id="G1OYZxIr4WpRyJIPXuP--89" value="" style="group;fontFamily=宋体;" vertex="1" connectable="0" parent="G1OYZxIr4WpRyJIPXuP--88">
          <mxGeometry x="51" y="15.841836734693876" width="103" height="123.56632653061223" as="geometry" />
        </mxCell>
        <mxCell id="G1OYZxIr4WpRyJIPXuP--90" value="" style="rounded=0;whiteSpace=wrap;html=1;fontFamily=宋体;" vertex="1" parent="G1OYZxIr4WpRyJIPXuP--89">
          <mxGeometry x="56" y="4.224489795918367" width="47" height="119.34183673469387" as="geometry" />
        </mxCell>
        <mxCell id="G1OYZxIr4WpRyJIPXuP--91" value="" style="rounded=0;whiteSpace=wrap;html=1;fontFamily=宋体;fillColor=none;" vertex="1" parent="G1OYZxIr4WpRyJIPXuP--89">
          <mxGeometry x="10" width="40" height="73.92857142857143" as="geometry" />
        </mxCell>
        <mxCell id="G1OYZxIr4WpRyJIPXuP--92" value="" style="rounded=0;whiteSpace=wrap;html=1;fontFamily=宋体;fillColor=none;" vertex="1" parent="G1OYZxIr4WpRyJIPXuP--89">
          <mxGeometry y="32.21173469387755" width="42" height="67.06377551020408" as="geometry" />
        </mxCell>
        <mxCell id="G1OYZxIr4WpRyJIPXuP--93" value="" style="rounded=0;whiteSpace=wrap;html=1;fontFamily=宋体;fillColor=none;" vertex="1" parent="G1OYZxIr4WpRyJIPXuP--89">
          <mxGeometry x="60" y="8.448979591836734" width="19" height="90.8265306122449" as="geometry" />
        </mxCell>
        <mxCell id="G1OYZxIr4WpRyJIPXuP--94" value="" style="rounded=0;whiteSpace=wrap;html=1;fontFamily=宋体;fillColor=none;" vertex="1" parent="G1OYZxIr4WpRyJIPXuP--89">
          <mxGeometry x="65" y="63.367346938775505" width="33" height="53.86224489795918" as="geometry" />
        </mxCell>
        <mxCell id="G1OYZxIr4WpRyJIPXuP--95" value="" style="rounded=0;whiteSpace=wrap;html=1;fontFamily=宋体;fillColor=none;" vertex="1" parent="G1OYZxIr4WpRyJIPXuP--89">
          <mxGeometry x="70" y="13.729591836734693" width="25" height="57.03061224489795" as="geometry" />
        </mxCell>
        <mxCell id="G1OYZxIr4WpRyJIPXuP--96" value="" style="rounded=0;whiteSpace=wrap;html=1;fontFamily=宋体;fillColor=none;" vertex="1" parent="G1OYZxIr4WpRyJIPXuP--89">
          <mxGeometry x="70" y="84.48979591836734" width="26" height="27.459183673469386" as="geometry" />
        </mxCell>
        <mxCell id="G1OYZxIr4WpRyJIPXuP--97" value="" style="shape=waypoint;sketch=0;fillStyle=solid;size=6;pointerEvents=1;points=[];fillColor=none;resizable=0;rotatable=0;perimeter=centerPerimeter;snapToPoint=1;fontFamily=宋体;strokeWidth=0;" vertex="1" parent="G1OYZxIr4WpRyJIPXuP--89">
          <mxGeometry x="73" y="82.37755102040816" width="20" height="20" as="geometry" />
        </mxCell>
        <mxCell id="G1OYZxIr4WpRyJIPXuP--98" value="" style="shape=waypoint;sketch=0;fillStyle=solid;size=6;pointerEvents=1;points=[];fillColor=none;resizable=0;rotatable=0;perimeter=centerPerimeter;snapToPoint=1;fontFamily=宋体;strokeWidth=0;" vertex="1" parent="G1OYZxIr4WpRyJIPXuP--89">
          <mxGeometry x="79" y="87.65816326530611" width="20" height="20" as="geometry" />
        </mxCell>
        <mxCell id="G1OYZxIr4WpRyJIPXuP--99" value="" style="shape=waypoint;sketch=0;fillStyle=solid;size=6;pointerEvents=1;points=[];fillColor=none;resizable=0;rotatable=0;perimeter=centerPerimeter;snapToPoint=1;fontFamily=宋体;strokeWidth=0;" vertex="1" parent="G1OYZxIr4WpRyJIPXuP--89">
          <mxGeometry x="70" y="96.10714285714285" width="20" height="20" as="geometry" />
        </mxCell>
        <mxCell id="G1OYZxIr4WpRyJIPXuP--100" value="" style="shape=waypoint;sketch=0;fillStyle=solid;size=6;pointerEvents=1;points=[];fillColor=none;resizable=0;rotatable=0;perimeter=centerPerimeter;snapToPoint=1;fontFamily=宋体;strokeWidth=0;" vertex="1" parent="G1OYZxIr4WpRyJIPXuP--89">
          <mxGeometry x="11" y="59.14285714285714" width="20" height="20" as="geometry" />
        </mxCell>
        <mxCell id="G1OYZxIr4WpRyJIPXuP--101" value="" style="shape=waypoint;sketch=0;fillStyle=solid;size=6;pointerEvents=1;points=[];fillColor=none;resizable=0;rotatable=0;perimeter=centerPerimeter;snapToPoint=1;fontFamily=宋体;strokeWidth=0;" vertex="1" parent="G1OYZxIr4WpRyJIPXuP--89">
          <mxGeometry x="3" y="70.76020408163265" width="20" height="20" as="geometry" />
        </mxCell>
        <mxCell id="G1OYZxIr4WpRyJIPXuP--102" value="" style="shape=waypoint;sketch=0;fillStyle=solid;size=6;pointerEvents=1;points=[];fillColor=none;resizable=0;rotatable=0;perimeter=centerPerimeter;snapToPoint=1;fontFamily=宋体;strokeWidth=0;" vertex="1" parent="G1OYZxIr4WpRyJIPXuP--89">
          <mxGeometry x="25" y="74.98469387755101" width="20" height="20" as="geometry" />
        </mxCell>
        <mxCell id="G1OYZxIr4WpRyJIPXuP--103" value="" style="rounded=1;whiteSpace=wrap;html=1;fontFamily=宋体;fillColor=none;" vertex="1" parent="G1OYZxIr4WpRyJIPXuP--88">
          <mxGeometry x="43" y="3.1683673469387754" width="116" height="148.91326530612244" as="geometry" />
        </mxCell>
        <mxCell id="G1OYZxIr4WpRyJIPXuP--104" value="&lt;b&gt;&lt;font style=&quot;font-size: 15px;&quot;&gt;分区2&lt;/font&gt;&lt;/b&gt;" style="rounded=0;whiteSpace=wrap;html=1;fontFamily=宋体;fillColor=none;align=left;" vertex="1" parent="G1OYZxIr4WpRyJIPXuP--88">
          <mxGeometry width="163" height="155.25" as="geometry" />
        </mxCell>
        <mxCell id="G1OYZxIr4WpRyJIPXuP--105" value="&lt;font face=&quot;Times New Roman&quot; style=&quot;font-size: 14px;&quot;&gt;R-Tree&lt;/font&gt;" style="text;html=1;align=center;verticalAlign=middle;whiteSpace=wrap;rounded=0;fontSize=20;fontFamily=Architects Daughter;fontSource=https%3A%2F%2Ffonts.googleapis.com%2Fcss%3Ffamily%3DArchitects%2BDaughter;" vertex="1" parent="G1OYZxIr4WpRyJIPXuP--88">
          <mxGeometry x="46" y="117.22959183673468" width="60" height="31.683673469387752" as="geometry" />
        </mxCell>
        <mxCell id="G1OYZxIr4WpRyJIPXuP--106" value="" style="group;fontFamily=宋体;" vertex="1" connectable="0" parent="G1OYZxIr4WpRyJIPXuP--128">
          <mxGeometry x="446" y="122.51020408163265" width="103" height="123.56632653061223" as="geometry" />
        </mxCell>
        <mxCell id="G1OYZxIr4WpRyJIPXuP--107" value="" style="rounded=0;whiteSpace=wrap;html=1;fontFamily=宋体;" vertex="1" parent="G1OYZxIr4WpRyJIPXuP--106">
          <mxGeometry x="56" y="4.224489795918367" width="47" height="119.34183673469387" as="geometry" />
        </mxCell>
        <mxCell id="G1OYZxIr4WpRyJIPXuP--108" value="" style="rounded=0;whiteSpace=wrap;html=1;fontFamily=宋体;fillColor=none;" vertex="1" parent="G1OYZxIr4WpRyJIPXuP--106">
          <mxGeometry x="10" width="40" height="73.92857142857143" as="geometry" />
        </mxCell>
        <mxCell id="G1OYZxIr4WpRyJIPXuP--109" value="" style="rounded=0;whiteSpace=wrap;html=1;fontFamily=宋体;fillColor=none;" vertex="1" parent="G1OYZxIr4WpRyJIPXuP--106">
          <mxGeometry y="32.21173469387755" width="42" height="67.06377551020408" as="geometry" />
        </mxCell>
        <mxCell id="G1OYZxIr4WpRyJIPXuP--110" value="" style="rounded=0;whiteSpace=wrap;html=1;fontFamily=宋体;fillColor=none;" vertex="1" parent="G1OYZxIr4WpRyJIPXuP--106">
          <mxGeometry x="60" y="8.448979591836734" width="19" height="90.8265306122449" as="geometry" />
        </mxCell>
        <mxCell id="G1OYZxIr4WpRyJIPXuP--111" value="" style="rounded=0;whiteSpace=wrap;html=1;fontFamily=宋体;fillColor=none;" vertex="1" parent="G1OYZxIr4WpRyJIPXuP--106">
          <mxGeometry x="65" y="63.367346938775505" width="33" height="53.86224489795918" as="geometry" />
        </mxCell>
        <mxCell id="G1OYZxIr4WpRyJIPXuP--112" value="" style="rounded=0;whiteSpace=wrap;html=1;fontFamily=宋体;fillColor=none;" vertex="1" parent="G1OYZxIr4WpRyJIPXuP--106">
          <mxGeometry x="70" y="13.729591836734693" width="25" height="57.03061224489795" as="geometry" />
        </mxCell>
        <mxCell id="G1OYZxIr4WpRyJIPXuP--113" value="" style="rounded=0;whiteSpace=wrap;html=1;fontFamily=宋体;fillColor=none;" vertex="1" parent="G1OYZxIr4WpRyJIPXuP--106">
          <mxGeometry x="70" y="84.48979591836734" width="26" height="27.459183673469386" as="geometry" />
        </mxCell>
        <mxCell id="G1OYZxIr4WpRyJIPXuP--114" value="" style="shape=waypoint;sketch=0;fillStyle=solid;size=6;pointerEvents=1;points=[];fillColor=none;resizable=0;rotatable=0;perimeter=centerPerimeter;snapToPoint=1;fontFamily=宋体;strokeWidth=0;" vertex="1" parent="G1OYZxIr4WpRyJIPXuP--106">
          <mxGeometry x="73" y="82.37755102040816" width="20" height="20" as="geometry" />
        </mxCell>
        <mxCell id="G1OYZxIr4WpRyJIPXuP--115" value="" style="shape=waypoint;sketch=0;fillStyle=solid;size=6;pointerEvents=1;points=[];fillColor=none;resizable=0;rotatable=0;perimeter=centerPerimeter;snapToPoint=1;fontFamily=宋体;strokeWidth=0;" vertex="1" parent="G1OYZxIr4WpRyJIPXuP--106">
          <mxGeometry x="79" y="87.65816326530611" width="20" height="20" as="geometry" />
        </mxCell>
        <mxCell id="G1OYZxIr4WpRyJIPXuP--116" value="" style="shape=waypoint;sketch=0;fillStyle=solid;size=6;pointerEvents=1;points=[];fillColor=none;resizable=0;rotatable=0;perimeter=centerPerimeter;snapToPoint=1;fontFamily=宋体;strokeWidth=0;" vertex="1" parent="G1OYZxIr4WpRyJIPXuP--106">
          <mxGeometry x="70" y="96.10714285714285" width="20" height="20" as="geometry" />
        </mxCell>
        <mxCell id="G1OYZxIr4WpRyJIPXuP--117" value="" style="shape=waypoint;sketch=0;fillStyle=solid;size=6;pointerEvents=1;points=[];fillColor=none;resizable=0;rotatable=0;perimeter=centerPerimeter;snapToPoint=1;fontFamily=宋体;strokeWidth=0;" vertex="1" parent="G1OYZxIr4WpRyJIPXuP--106">
          <mxGeometry x="11" y="59.14285714285714" width="20" height="20" as="geometry" />
        </mxCell>
        <mxCell id="G1OYZxIr4WpRyJIPXuP--118" value="" style="shape=waypoint;sketch=0;fillStyle=solid;size=6;pointerEvents=1;points=[];fillColor=none;resizable=0;rotatable=0;perimeter=centerPerimeter;snapToPoint=1;fontFamily=宋体;strokeWidth=0;" vertex="1" parent="G1OYZxIr4WpRyJIPXuP--106">
          <mxGeometry x="3" y="70.76020408163265" width="20" height="20" as="geometry" />
        </mxCell>
        <mxCell id="G1OYZxIr4WpRyJIPXuP--119" value="" style="shape=waypoint;sketch=0;fillStyle=solid;size=6;pointerEvents=1;points=[];fillColor=none;resizable=0;rotatable=0;perimeter=centerPerimeter;snapToPoint=1;fontFamily=宋体;strokeWidth=0;" vertex="1" parent="G1OYZxIr4WpRyJIPXuP--106">
          <mxGeometry x="25" y="74.98469387755101" width="20" height="20" as="geometry" />
        </mxCell>
        <mxCell id="G1OYZxIr4WpRyJIPXuP--120" value="&lt;font face=&quot;Times New Roman&quot; style=&quot;font-size: 14px;&quot;&gt;R-Tree&lt;/font&gt;" style="text;html=1;align=center;verticalAlign=middle;whiteSpace=wrap;rounded=0;fontSize=20;fontFamily=Architects Daughter;fontSource=https%3A%2F%2Ffonts.googleapis.com%2Fcss%3Ffamily%3DArchitects%2BDaughter;" vertex="1" parent="G1OYZxIr4WpRyJIPXuP--128">
          <mxGeometry x="438" y="222.84183673469389" width="60" height="31.683673469387752" as="geometry" />
        </mxCell>
        <mxCell id="G1OYZxIr4WpRyJIPXuP--121" value="......" style="text;html=1;align=center;verticalAlign=middle;whiteSpace=wrap;rounded=0;fontSize=13;fontFamily=宋体;" vertex="1" parent="G1OYZxIr4WpRyJIPXuP--128">
          <mxGeometry x="342" y="163.69897959183672" width="60" height="31.683673469387752" as="geometry" />
        </mxCell>
        <mxCell id="G1OYZxIr4WpRyJIPXuP--124" value="" style="edgeStyle=elbowEdgeStyle;elbow=vertical;endArrow=classic;html=1;curved=0;rounded=0;endSize=8;startSize=8;fontFamily=宋体;fontSize=16;sourcePerimeterSpacing=8;targetPerimeterSpacing=8;exitX=0.5;exitY=1;exitDx=0;exitDy=0;entryX=0.5;entryY=0;entryDx=0;entryDy=0;" edge="1" parent="G1OYZxIr4WpRyJIPXuP--128" source="G1OYZxIr4WpRyJIPXuP--129">
          <mxGeometry width="50" height="50" relative="1" as="geometry">
            <mxPoint x="301" as="sourcePoint" />
            <mxPoint x="477" y="106.66836734693877" as="targetPoint" />
            <Array as="points">
              <mxPoint x="388" y="66.53571428571429" />
            </Array>
          </mxGeometry>
        </mxCell>
        <mxCell id="G1OYZxIr4WpRyJIPXuP--125" value="" style="edgeStyle=elbowEdgeStyle;elbow=vertical;endArrow=classic;html=1;curved=0;rounded=0;endSize=8;startSize=8;fontFamily=宋体;fontSize=16;sourcePerimeterSpacing=8;targetPerimeterSpacing=8;exitX=0.5;exitY=1;exitDx=0;exitDy=0;entryX=0.5;entryY=0;entryDx=0;entryDy=0;" edge="1" parent="G1OYZxIr4WpRyJIPXuP--128" source="G1OYZxIr4WpRyJIPXuP--86">
          <mxGeometry width="50" height="50" relative="1" as="geometry">
            <mxPoint x="221" y="177.42857142857144" as="sourcePoint" />
            <mxPoint x="268" y="322.1173469387755" as="targetPoint" />
          </mxGeometry>
        </mxCell>
        <mxCell id="G1OYZxIr4WpRyJIPXuP--126" value="" style="edgeStyle=elbowEdgeStyle;elbow=horizontal;endArrow=classic;html=1;curved=0;rounded=0;endSize=8;startSize=8;fontFamily=宋体;fontSize=16;sourcePerimeterSpacing=8;targetPerimeterSpacing=8;exitX=0.5;exitY=1;exitDx=0;exitDy=0;entryX=0.5;entryY=0;entryDx=0;entryDy=0;" edge="1" parent="G1OYZxIr4WpRyJIPXuP--128" source="G1OYZxIr4WpRyJIPXuP--104">
          <mxGeometry width="50" height="50" relative="1" as="geometry">
            <mxPoint x="221" y="177.42857142857144" as="sourcePoint" />
            <mxPoint x="268" y="322.1173469387755" as="targetPoint" />
          </mxGeometry>
        </mxCell>
        <mxCell id="G1OYZxIr4WpRyJIPXuP--127" value="" style="edgeStyle=elbowEdgeStyle;elbow=vertical;endArrow=classic;html=1;curved=0;rounded=0;endSize=8;startSize=8;fontFamily=宋体;fontSize=16;sourcePerimeterSpacing=8;targetPerimeterSpacing=8;exitX=0.5;exitY=1;exitDx=0;exitDy=0;entryX=0.5;entryY=0;entryDx=0;entryDy=0;" edge="1" parent="G1OYZxIr4WpRyJIPXuP--128">
          <mxGeometry width="50" height="50" relative="1" as="geometry">
            <mxPoint x="477" y="261.9183673469388" as="sourcePoint" />
            <mxPoint x="268" y="322.1173469387755" as="targetPoint" />
            <Array as="points">
              <mxPoint x="372" y="291.48979591836735" />
            </Array>
          </mxGeometry>
        </mxCell>
        <mxCell id="G1OYZxIr4WpRyJIPXuP--129" value="&lt;div&gt;&lt;font style=&quot;font-size: 19px;&quot;&gt;静态信息筛选&lt;/font&gt;&lt;/div&gt;" style="rhombus;whiteSpace=wrap;html=1;fontFamily=宋体;fontSize=17;" vertex="1" parent="G1OYZxIr4WpRyJIPXuP--128">
          <mxGeometry x="156.5" y="-3.1683673469387754" width="222" height="52.80612244897959" as="geometry" />
        </mxCell>
        <mxCell id="G1OYZxIr4WpRyJIPXuP--123" value="" style="edgeStyle=elbowEdgeStyle;elbow=vertical;endArrow=classic;html=1;curved=0;rounded=0;endSize=8;startSize=8;fontFamily=宋体;fontSize=16;sourcePerimeterSpacing=8;targetPerimeterSpacing=8;exitX=0.5;exitY=1;exitDx=0;exitDy=0;entryX=0.5;entryY=0;entryDx=0;entryDy=0;" edge="1" parent="G1OYZxIr4WpRyJIPXuP--128" target="G1OYZxIr4WpRyJIPXuP--104" source="G1OYZxIr4WpRyJIPXuP--129">
          <mxGeometry width="50" height="50" relative="1" as="geometry">
            <mxPoint x="301" as="sourcePoint" />
            <mxPoint x="276" y="208.05612244897958" as="targetPoint" />
            <Array as="points">
              <mxPoint x="291" y="66.53571428571429" />
            </Array>
          </mxGeometry>
        </mxCell>
        <mxCell id="G1OYZxIr4WpRyJIPXuP--122" value="" style="edgeStyle=elbowEdgeStyle;elbow=vertical;endArrow=classic;html=1;curved=0;rounded=0;endSize=8;startSize=8;fontFamily=宋体;fontSize=16;sourcePerimeterSpacing=8;targetPerimeterSpacing=8;entryX=0.5;entryY=0;entryDx=0;entryDy=0;exitX=0.5;exitY=1;exitDx=0;exitDy=0;" edge="1" parent="G1OYZxIr4WpRyJIPXuP--128" target="G1OYZxIr4WpRyJIPXuP--86" source="G1OYZxIr4WpRyJIPXuP--129">
          <mxGeometry width="50" height="50" relative="1" as="geometry">
            <mxPoint x="301" as="sourcePoint" />
            <mxPoint x="80" y="87.34132653061229" as="targetPoint" />
            <Array as="points">
              <mxPoint x="191" y="66.53571428571429" />
            </Array>
          </mxGeometry>
        </mxCell>
        <mxCell id="G1OYZxIr4WpRyJIPXuP--133" value="&lt;div&gt;&lt;font style=&quot;font-size: 19px;&quot;&gt;时间范围筛选&lt;/font&gt;&lt;/div&gt;" style="rhombus;whiteSpace=wrap;html=1;fontFamily=宋体;fontSize=17;" vertex="1" parent="G1OYZxIr4WpRyJIPXuP--142">
          <mxGeometry x="210.5" y="5.280612244897958" width="222" height="51.74999999999999" as="geometry" />
        </mxCell>
        <mxCell id="G1OYZxIr4WpRyJIPXuP--135" value="空间范围筛选" style="text;html=1;align=center;verticalAlign=middle;whiteSpace=wrap;rounded=0;fontSize=21;fontFamily=宋体;" vertex="1" parent="G1OYZxIr4WpRyJIPXuP--142">
          <mxGeometry x="10" y="208" width="34" height="144.02" as="geometry" />
        </mxCell>
        <mxCell id="G1OYZxIr4WpRyJIPXuP--140" value="" style="edgeStyle=elbowEdgeStyle;elbow=vertical;endArrow=classic;html=1;curved=0;rounded=0;endSize=8;startSize=8;fontFamily=宋体;fontSize=16;sourcePerimeterSpacing=8;targetPerimeterSpacing=8;exitX=0.5;exitY=1;exitDx=0;exitDy=0;entryX=0.5;entryY=0;entryDx=0;entryDy=0;" edge="1" parent="G1OYZxIr4WpRyJIPXuP--142" source="G1OYZxIr4WpRyJIPXuP--133" target="G1OYZxIr4WpRyJIPXuP--129">
          <mxGeometry width="50" height="50" relative="1" as="geometry">
            <mxPoint x="332" y="152.08163265306123" as="sourcePoint" />
            <mxPoint x="146" y="208.05612244897958" as="targetPoint" />
            <Array as="points">
              <mxPoint x="277" y="71.81632653061223" />
            </Array>
          </mxGeometry>
        </mxCell>
        <mxCell id="G1OYZxIr4WpRyJIPXuP--143" value="" style="edgeStyle=elbowEdgeStyle;elbow=vertical;endArrow=classic;html=1;curved=0;rounded=0;endSize=8;startSize=8;fontFamily=宋体;fontSize=16;sourcePerimeterSpacing=8;targetPerimeterSpacing=8;exitX=0.5;exitY=0.88;exitDx=0;exitDy=0;exitPerimeter=0;entryX=0.5;entryY=0;entryDx=0;entryDy=0;" edge="1" parent="1" source="3G0diSPvrYinm9wSDgkd-21" target="G1OYZxIr4WpRyJIPXuP--133">
          <mxGeometry width="50" height="50" relative="1" as="geometry">
            <mxPoint x="886" y="406" as="sourcePoint" />
            <mxPoint x="886" y="436" as="targetPoint" />
            <Array as="points">
              <mxPoint x="871" y="295" />
            </Array>
          </mxGeometry>
        </mxCell>
        <mxCell id="G1OYZxIr4WpRyJIPXuP--146" value="&lt;span style=&quot;font-family: 宋体; font-size: 18px;&quot;&gt;轨迹相似性预评估&lt;/span&gt;" style="rhombus;whiteSpace=wrap;html=1;fontFamily=Architects Daughter;fontSource=https%3A%2F%2Ffonts.googleapis.com%2Fcss%3Ffamily%3DArchitects%2BDaughter;" vertex="1" parent="1">
          <mxGeometry x="777" y="851.5" width="210" height="67" as="geometry" />
        </mxCell>
        <mxCell id="G1OYZxIr4WpRyJIPXuP--156" value="" style="edgeStyle=elbowEdgeStyle;elbow=horizontal;endArrow=classic;html=1;curved=0;rounded=0;endSize=8;startSize=8;fontFamily=宋体;fontSize=16;sourcePerimeterSpacing=8;targetPerimeterSpacing=8;exitX=0.5;exitY=1;exitDx=0;exitDy=0;entryX=0.5;entryY=0;entryDx=0;entryDy=0;" edge="1" parent="1" source="3G0diSPvrYinm9wSDgkd-160" target="G1OYZxIr4WpRyJIPXuP--146">
          <mxGeometry width="50" height="50" relative="1" as="geometry">
            <mxPoint x="902" y="1000" as="sourcePoint" />
            <mxPoint x="902" y="1061" as="targetPoint" />
          </mxGeometry>
        </mxCell>
        <mxCell id="G1OYZxIr4WpRyJIPXuP--141" value="&lt;font style=&quot;&quot; size=&quot;1&quot;&gt;&lt;span style=&quot;font-size: 23px;&quot;&gt;分布式数据检索&lt;/span&gt;&lt;/font&gt;" style="text;html=1;align=center;verticalAlign=middle;whiteSpace=wrap;rounded=0;fontSize=21;fontFamily=宋体;fontStyle=1" vertex="1" parent="1">
          <mxGeometry x="1186" y="410" width="37" height="239" as="geometry" />
        </mxCell>
        <mxCell id="G1OYZxIr4WpRyJIPXuP--164" value="" style="edgeStyle=segmentEdgeStyle;endArrow=classic;html=1;curved=0;rounded=0;endSize=8;startSize=8;fontFamily=Architects Daughter;fontSource=https%3A%2F%2Ffonts.googleapis.com%2Fcss%3Ffamily%3DArchitects%2BDaughter;fontSize=16;sourcePerimeterSpacing=8;targetPerimeterSpacing=8;exitX=1;exitY=0.5;exitDx=0;exitDy=0;startArrow=diamond;startFill=1;" edge="1" parent="1" source="3G0diSPvrYinm9wSDgkd-19" target="G1OYZxIr4WpRyJIPXuP--135">
          <mxGeometry width="50" height="50" relative="1" as="geometry">
            <mxPoint x="699" y="663" as="sourcePoint" />
            <mxPoint x="633" y="751" as="targetPoint" />
          </mxGeometry>
        </mxCell>
        <mxCell id="G1OYZxIr4WpRyJIPXuP--165" value="条件" style="swimlane;fontStyle=1;childLayout=stackLayout;horizontal=1;startSize=26;fillColor=none;horizontalStack=0;resizeParent=1;resizeParentMax=0;resizeLast=0;collapsible=1;marginBottom=0;html=1;fontFamily=宋体;fontSize=17;verticalAlign=middle;" vertex="1" parent="1">
          <mxGeometry x="350" y="451" width="140" height="86" as="geometry">
            <mxRectangle x="360" y="410" width="110" height="30" as="alternateBounds" />
          </mxGeometry>
        </mxCell>
        <mxCell id="G1OYZxIr4WpRyJIPXuP--168" value="时间范围" style="text;strokeColor=none;fillColor=none;align=left;verticalAlign=middle;spacingLeft=4;spacingRight=4;overflow=hidden;rotatable=0;points=[[0,0.5],[1,0.5]];portConstraint=eastwest;whiteSpace=wrap;html=1;fontFamily=宋体;fontStyle=0;fontSize=16;" vertex="1" parent="G1OYZxIr4WpRyJIPXuP--165">
          <mxGeometry y="26" width="140" height="26" as="geometry" />
        </mxCell>
        <mxCell id="G1OYZxIr4WpRyJIPXuP--167" value="" style="line;strokeWidth=1;fillColor=none;align=left;verticalAlign=middle;spacingTop=-1;spacingLeft=3;spacingRight=3;rotatable=0;labelPosition=right;points=[];portConstraint=eastwest;strokeColor=inherit;fontFamily=宋体;" vertex="1" parent="G1OYZxIr4WpRyJIPXuP--165">
          <mxGeometry y="52" width="140" height="8" as="geometry" />
        </mxCell>
        <mxCell id="G1OYZxIr4WpRyJIPXuP--166" value="车辆静态信息" style="text;strokeColor=none;fillColor=none;align=left;verticalAlign=middle;spacingLeft=4;spacingRight=4;overflow=hidden;rotatable=0;points=[[0,0.5],[1,0.5]];portConstraint=eastwest;whiteSpace=wrap;html=1;fontFamily=宋体;fontStyle=0;fontSize=16;" vertex="1" parent="G1OYZxIr4WpRyJIPXuP--165">
          <mxGeometry y="60" width="140" height="26" as="geometry" />
        </mxCell>
        <mxCell id="G1OYZxIr4WpRyJIPXuP--175" value="" style="edgeStyle=elbowEdgeStyle;elbow=horizontal;endArrow=classic;html=1;curved=0;rounded=0;endSize=8;startSize=8;fontFamily=Architects Daughter;fontSource=https%3A%2F%2Ffonts.googleapis.com%2Fcss%3Ffamily%3DArchitects%2BDaughter;fontSize=16;sourcePerimeterSpacing=8;targetPerimeterSpacing=8;exitX=1;exitY=0.5;exitDx=0;exitDy=0;entryX=0;entryY=0.5;entryDx=0;entryDy=0;startArrow=diamond;startFill=1;" edge="1" parent="1" source="3G0diSPvrYinm9wSDgkd-18" target="3G0diSPvrYinm9wSDgkd-160">
          <mxGeometry width="50" height="50" relative="1" as="geometry">
            <mxPoint x="699" y="663" as="sourcePoint" />
            <mxPoint x="749" y="613" as="targetPoint" />
          </mxGeometry>
        </mxCell>
        <mxCell id="G1OYZxIr4WpRyJIPXuP--176" value="" style="edgeStyle=elbowEdgeStyle;elbow=horizontal;endArrow=classic;html=1;curved=0;rounded=0;endSize=8;startSize=8;fontFamily=Architects Daughter;fontSource=https%3A%2F%2Ffonts.googleapis.com%2Fcss%3Ffamily%3DArchitects%2BDaughter;fontSize=16;sourcePerimeterSpacing=8;targetPerimeterSpacing=8;exitX=1;exitY=0.5;exitDx=0;exitDy=0;entryX=0;entryY=0.5;entryDx=0;entryDy=0;startArrow=diamond;startFill=1;" edge="1" parent="1" source="3G0diSPvrYinm9wSDgkd-201" target="3G0diSPvrYinm9wSDgkd-160">
          <mxGeometry width="50" height="50" relative="1" as="geometry">
            <mxPoint x="699" y="663" as="sourcePoint" />
            <mxPoint x="749" y="613" as="targetPoint" />
            <Array as="points">
              <mxPoint x="513" y="807" />
            </Array>
          </mxGeometry>
        </mxCell>
        <mxCell id="G1OYZxIr4WpRyJIPXuP--177" value="" style="edgeStyle=elbowEdgeStyle;elbow=horizontal;endArrow=classic;html=1;curved=0;rounded=0;endSize=8;startSize=8;fontFamily=Architects Daughter;fontSource=https%3A%2F%2Ffonts.googleapis.com%2Fcss%3Ffamily%3DArchitects%2BDaughter;fontSize=16;sourcePerimeterSpacing=8;targetPerimeterSpacing=8;exitX=1;exitY=0.5;exitDx=0;exitDy=0;entryX=0;entryY=0.5;entryDx=0;entryDy=0;startArrow=diamond;startFill=1;" edge="1" parent="1" source="3G0diSPvrYinm9wSDgkd-12" target="G1OYZxIr4WpRyJIPXuP--146">
          <mxGeometry width="50" height="50" relative="1" as="geometry">
            <mxPoint x="699" y="663" as="sourcePoint" />
            <mxPoint x="749" y="613" as="targetPoint" />
            <Array as="points">
              <mxPoint x="513" y="880" />
            </Array>
          </mxGeometry>
        </mxCell>
        <mxCell id="G1OYZxIr4WpRyJIPXuP--178" value="" style="edgeStyle=elbowEdgeStyle;elbow=horizontal;endArrow=classic;html=1;curved=0;rounded=0;endSize=8;startSize=8;fontFamily=Architects Daughter;fontSource=https%3A%2F%2Ffonts.googleapis.com%2Fcss%3Ffamily%3DArchitects%2BDaughter;fontSize=16;sourcePerimeterSpacing=8;targetPerimeterSpacing=8;exitX=1;exitY=0.5;exitDx=0;exitDy=0;entryX=0;entryY=0.5;entryDx=0;entryDy=0;startArrow=diamond;startFill=1;" edge="1" parent="1" source="3G0diSPvrYinm9wSDgkd-10" target="3G0diSPvrYinm9wSDgkd-167">
          <mxGeometry width="50" height="50" relative="1" as="geometry">
            <mxPoint x="699" y="663" as="sourcePoint" />
            <mxPoint x="749" y="613" as="targetPoint" />
            <Array as="points">
              <mxPoint x="513" y="930" />
            </Array>
          </mxGeometry>
        </mxCell>
        <mxCell id="G1OYZxIr4WpRyJIPXuP--179" value="" style="edgeStyle=elbowEdgeStyle;elbow=horizontal;endArrow=classic;html=1;curved=0;rounded=0;endSize=8;startSize=8;fontFamily=Architects Daughter;fontSource=https%3A%2F%2Ffonts.googleapis.com%2Fcss%3Ffamily%3DArchitects%2BDaughter;fontSize=16;sourcePerimeterSpacing=8;targetPerimeterSpacing=8;exitX=1;exitY=0.5;exitDx=0;exitDy=0;entryX=0;entryY=0.5;entryDx=0;entryDy=0;startArrow=diamond;startFill=1;" edge="1" parent="1" source="G1OYZxIr4WpRyJIPXuP--166" target="G1OYZxIr4WpRyJIPXuP--129">
          <mxGeometry width="50" height="50" relative="1" as="geometry">
            <mxPoint x="699" y="663" as="sourcePoint" />
            <mxPoint x="749" y="613" as="targetPoint" />
            <Array as="points">
              <mxPoint x="552" y="497" />
            </Array>
          </mxGeometry>
        </mxCell>
        <mxCell id="G1OYZxIr4WpRyJIPXuP--180" value="" style="edgeStyle=elbowEdgeStyle;elbow=horizontal;endArrow=classic;html=1;curved=0;rounded=0;endSize=8;startSize=8;fontFamily=Architects Daughter;fontSource=https%3A%2F%2Ffonts.googleapis.com%2Fcss%3Ffamily%3DArchitects%2BDaughter;fontSize=16;sourcePerimeterSpacing=8;targetPerimeterSpacing=8;exitX=1;exitY=0.5;exitDx=0;exitDy=0;entryX=0;entryY=0.5;entryDx=0;entryDy=0;startArrow=diamond;startFill=1;" edge="1" parent="1" source="G1OYZxIr4WpRyJIPXuP--168" target="G1OYZxIr4WpRyJIPXuP--133">
          <mxGeometry width="50" height="50" relative="1" as="geometry">
            <mxPoint x="490" y="668" as="sourcePoint" />
            <mxPoint x="565" y="628" as="targetPoint" />
            <Array as="points">
              <mxPoint x="509" y="430" />
            </Array>
          </mxGeometry>
        </mxCell>
        <mxCell id="G1OYZxIr4WpRyJIPXuP--182" value="" style="html=1;shadow=0;dashed=0;align=center;verticalAlign=middle;shape=mxgraph.arrows2.arrow;dy=0.46;dx=15;flipH=1;notch=0;fontFamily=Architects Daughter;fontSource=https%3A%2F%2Ffonts.googleapis.com%2Fcss%3Ffamily%3DArchitects%2BDaughter;" vertex="1" parent="1">
          <mxGeometry x="315" y="1018" width="29" height="70" as="geometry" />
        </mxCell>
        <mxCell id="G1OYZxIr4WpRyJIPXuP--183" value="" style="html=1;shadow=0;dashed=0;align=center;verticalAlign=middle;shape=mxgraph.arrows2.arrow;dy=0.46;dx=15;flipH=1;notch=0;fontFamily=Architects Daughter;fontSource=https%3A%2F%2Ffonts.googleapis.com%2Fcss%3Ffamily%3DArchitects%2BDaughter;rotation=-180;" vertex="1" parent="1">
          <mxGeometry x="317" y="464" width="29" height="70" as="geometry" />
        </mxCell>
        <mxCell id="G1OYZxIr4WpRyJIPXuP--184" value="" style="html=1;shadow=0;dashed=0;align=center;verticalAlign=middle;shape=mxgraph.arrows2.arrow;dy=0.46;dx=15;flipH=1;notch=0;fontFamily=Architects Daughter;fontSource=https%3A%2F%2Ffonts.googleapis.com%2Fcss%3Ffamily%3DArchitects%2BDaughter;rotation=-180;" vertex="1" parent="1">
          <mxGeometry x="317" y="795" width="29" height="70" as="geometry" />
        </mxCell>
        <mxCell id="G1OYZxIr4WpRyJIPXuP--196" value="" style="group" vertex="1" connectable="0" parent="1">
          <mxGeometry x="589" y="1810" width="334" height="192" as="geometry" />
        </mxCell>
        <mxCell id="G1OYZxIr4WpRyJIPXuP--186" value="" style="curved=1;endArrow=oval;html=1;rounded=0;fontFamily=Architects Daughter;fontSource=https%3A%2F%2Ffonts.googleapis.com%2Fcss%3Ffamily%3DArchitects%2BDaughter;fontSize=16;startSize=14;endSize=14;sourcePerimeterSpacing=8;targetPerimeterSpacing=8;endFill=1;startArrow=oval;startFill=1;dashed=1;" edge="1" parent="G1OYZxIr4WpRyJIPXuP--196">
          <mxGeometry width="50" height="50" relative="1" as="geometry">
            <mxPoint y="149" as="sourcePoint" />
            <mxPoint x="332" y="39" as="targetPoint" />
            <Array as="points">
              <mxPoint x="41" y="132" />
              <mxPoint x="41" y="85" />
              <mxPoint x="112" y="115" />
              <mxPoint x="112" y="39" />
              <mxPoint x="175" y="82" />
              <mxPoint x="191" y="49" />
              <mxPoint x="195" y="14" />
              <mxPoint x="267" y="24" />
              <mxPoint x="283" y="91" />
            </Array>
          </mxGeometry>
        </mxCell>
        <mxCell id="G1OYZxIr4WpRyJIPXuP--187" value="" style="curved=1;endArrow=oval;html=1;rounded=0;fontFamily=Architects Daughter;fontSource=https%3A%2F%2Ffonts.googleapis.com%2Fcss%3Ffamily%3DArchitects%2BDaughter;fontSize=16;startSize=14;endSize=14;sourcePerimeterSpacing=8;targetPerimeterSpacing=8;endFill=1;startArrow=oval;startFill=1;" edge="1" parent="G1OYZxIr4WpRyJIPXuP--196">
          <mxGeometry width="50" height="50" relative="1" as="geometry">
            <mxPoint y="150" as="sourcePoint" />
            <mxPoint x="332" y="39" as="targetPoint" />
            <Array as="points">
              <mxPoint x="48" y="136" />
              <mxPoint x="75" y="134" />
              <mxPoint x="113" y="121" />
              <mxPoint x="138" y="97" />
              <mxPoint x="173" y="73" />
              <mxPoint x="207" y="64" />
              <mxPoint x="199" y="9" />
              <mxPoint x="277" />
            </Array>
          </mxGeometry>
        </mxCell>
        <mxCell id="G1OYZxIr4WpRyJIPXuP--189" value="" style="curved=1;endArrow=oval;html=1;rounded=0;fontFamily=Architects Daughter;fontSource=https%3A%2F%2Ffonts.googleapis.com%2Fcss%3Ffamily%3DArchitects%2BDaughter;fontSize=16;startSize=14;endSize=14;sourcePerimeterSpacing=8;targetPerimeterSpacing=8;endFill=1;startArrow=oval;startFill=1;" edge="1" parent="G1OYZxIr4WpRyJIPXuP--196">
          <mxGeometry width="50" height="50" relative="1" as="geometry">
            <mxPoint y="149" as="sourcePoint" />
            <mxPoint x="332" y="39" as="targetPoint" />
            <Array as="points">
              <mxPoint x="41" y="132" />
              <mxPoint x="35" y="77" />
              <mxPoint x="90" y="134" />
              <mxPoint x="96" y="28" />
              <mxPoint x="175" y="82" />
              <mxPoint x="191" y="49" />
              <mxPoint x="195" y="14" />
              <mxPoint x="267" y="24" />
              <mxPoint x="281" y="118" />
            </Array>
          </mxGeometry>
        </mxCell>
        <mxCell id="G1OYZxIr4WpRyJIPXuP--190" value="" style="curved=1;endArrow=oval;html=1;rounded=0;fontFamily=Architects Daughter;fontSource=https%3A%2F%2Ffonts.googleapis.com%2Fcss%3Ffamily%3DArchitects%2BDaughter;fontSize=16;startSize=14;endSize=14;sourcePerimeterSpacing=8;targetPerimeterSpacing=8;endFill=1;startArrow=oval;startFill=1;" edge="1" parent="G1OYZxIr4WpRyJIPXuP--196">
          <mxGeometry width="50" height="50" relative="1" as="geometry">
            <mxPoint y="149" as="sourcePoint" />
            <mxPoint x="334" y="39" as="targetPoint" />
            <Array as="points">
              <mxPoint x="50" y="136" />
              <mxPoint x="61" y="112" />
              <mxPoint x="94" y="80" />
              <mxPoint x="175" y="73" />
              <mxPoint x="187" y="65" />
              <mxPoint x="201" y="9" />
              <mxPoint x="284" y="21" />
            </Array>
          </mxGeometry>
        </mxCell>
        <mxCell id="G1OYZxIr4WpRyJIPXuP--192" value="" style="line;strokeWidth=1;html=1;fontFamily=Architects Daughter;fontSource=https%3A%2F%2Ffonts.googleapis.com%2Fcss%3Ffamily%3DArchitects%2BDaughter;dashed=1;" vertex="1" parent="G1OYZxIr4WpRyJIPXuP--196">
          <mxGeometry x="164" y="142" width="51" height="10" as="geometry" />
        </mxCell>
        <mxCell id="G1OYZxIr4WpRyJIPXuP--193" value="&lt;font style=&quot;font-size: 19px;&quot; face=&quot;宋体&quot;&gt;目标路线&lt;/font&gt;" style="text;html=1;align=center;verticalAlign=middle;resizable=0;points=[];autosize=1;strokeColor=none;fillColor=none;fontSize=20;fontFamily=Architects Daughter;fontSource=https%3A%2F%2Ffonts.googleapis.com%2Fcss%3Ffamily%3DArchitects%2BDaughter;" vertex="1" parent="G1OYZxIr4WpRyJIPXuP--196">
          <mxGeometry x="208" y="127" width="94" height="36" as="geometry" />
        </mxCell>
        <mxCell id="G1OYZxIr4WpRyJIPXuP--194" value="" style="line;strokeWidth=1;html=1;fontFamily=Architects Daughter;fontSource=https%3A%2F%2Ffonts.googleapis.com%2Fcss%3Ffamily%3DArchitects%2BDaughter;" vertex="1" parent="G1OYZxIr4WpRyJIPXuP--196">
          <mxGeometry x="164" y="170" width="51" height="10" as="geometry" />
        </mxCell>
        <mxCell id="G1OYZxIr4WpRyJIPXuP--195" value="&lt;font face=&quot;宋体&quot;&gt;&lt;span style=&quot;font-size: 19px;&quot;&gt;候选轨迹&lt;/span&gt;&lt;/font&gt;" style="text;html=1;align=center;verticalAlign=middle;resizable=0;points=[];autosize=1;strokeColor=none;fillColor=none;fontSize=20;fontFamily=Architects Daughter;fontSource=https%3A%2F%2Ffonts.googleapis.com%2Fcss%3Ffamily%3DArchitects%2BDaughter;" vertex="1" parent="G1OYZxIr4WpRyJIPXuP--196">
          <mxGeometry x="208" y="155" width="94" height="37" as="geometry" />
        </mxCell>
      </root>
    </mxGraphModel>
  </diagram>
</mxfile>
